<svg id="Layer_1" data-name="Layer 1" xmlns="http://www.w3.org/2000/svg" viewBox="0 0 189.75 210.61">
  <title>ducati-logo</title>
  <path id="background" d="M185.4,28.62c-3.6-4.1-8.8-7.7-14.6-10.6C149.8,7.42,112-.28,87.5,1.92c-16.2,1.4-27.3,2.9-42.9,7.2-12.3,3.4-26.3,8.9-34.3,15.7-4.7,4-8,7.4-9,15.9-2,17.9,5.8,47.5,11.2,63.5,7.2,21.3,12.7,32.9,24.5,50.4,3.4,5,6.9,10,10.5,14.6A245.54,245.54,0,0,0,70.7,196a88.4,88.4,0,0,0,13.5,11.4c5.5,3.7,10.9,6.8,18.5,3,17.1-8.8,38.3-35.8,49-51.1,15.6-22.2,23.6-42,31.4-68.7,3.6-12.3,7.4-28.6,7.6-42.5C190.9,39.22,190.1,33.82,185.4,28.62Z" transform="translate(-0.98 -1.54)" fill="#b00"/>
  <path id="foreground" d="M185.4,28.62c-3.6-4.1-8.8-7.7-14.6-10.6C149.8,7.42,112-.28,87.5,1.92c-16.2,1.4-27.3,2.9-42.9,7.2-12.3,3.4-26.3,8.9-34.3,15.7-4.7,4-8,7.4-9,15.9-2,17.9,5.8,47.5,11.2,63.5,7.2,21.3,12.7,32.9,24.5,50.4,3.4,5,6.9,10,10.5,14.6A245.54,245.54,0,0,0,70.7,196a88.4,88.4,0,0,0,13.5,11.4c5.5,3.7,10.9,6.8,18.5,3,17.1-8.8,38.3-35.8,49-51.1,15.6-22.2,23.6-42,31.4-68.7,3.6-12.3,7.4-28.6,7.6-42.5C190.9,39.22,190.1,33.82,185.4,28.62Zm-25.3,106.2c-10.5,20.1-32.8,49.7-50,64.1a46.88,46.88,0,0,1-9.7,6.5c-5,2.3-8.2.7-12.1-1.7-13.2-8-30.2-29.4-39.5-41.9-3.1-4.2-7-10.1-9.9-14.6-2-3.1-2.3-2.9-2.3-5.7.2-16.9,18.2-28.6,30.9-34.2,14.9-6.6,33.3-11.3,51.2-14,9.7-1.4,19.1-2.5,29-3.5,3-.3,27.6-2.1,30.6-1.8A261.51,261.51,0,0,1,160.1,134.82Zm22.5-64.7c-.6,3.1-1.4,5.9-2,9a106.6,106.6,0,0,1-11.3-.3c-3.7-.2-7.7-.2-11.4-.2-32.9-.1-76.8.7-108.2,7.4-8.8,1.9-18.4,4.4-26.1,8.6-3.9,2.1-5.6,4-6.7,4.6-4.6-14.9-11.9-39.7-10-56,.9-7.7,3.8-10.7,8.1-14.1,14.7-11.5,44.8-18.3,68.3-20.4,23.9-2.1,55,2.7,76.7,11.3,9.1,3.6,22,9.5,24.4,19.9C186.3,48.62,184.3,61.32,182.6,70.12ZM78.9,38.42H68.4c-.7,4.3-2.4,11.5-3.4,16.3-.4,1.9-.8,3.8-2.4,4.1-2.6.6-2.1-2.4-1.8-4.1.4-1.9.7-3.6,1.1-5.4a105.19,105.19,0,0,0,2.2-10.9H53.7c-.4.7-3.6,16.3-3.9,18.3-1.4,8.1,5.1,10,12.4,9.6,12.9-.8,12.8-9.4,14.7-18.4a70.16,70.16,0,0,0,2-9.5ZM104,55.52l-9.9-.1c-.4,1.7-1.9,5-4.3,3.3-2-1.4.4-11.5,2.2-13.2.7-.6,2.1-1.2,3.1-.6s.8,2.1.8,3.4h9.6c.5-4.9-.1-7.4-3.3-9.3-5.9-3.5-20.4-2.1-23.5,12.4-1.8,8.8,1.3,14.5,10.1,14.7,8,.3,13.9-3.9,15.2-10.6Zm30.3-9.9h6.4c.1,2.4-4.1,18-3.8,19.9h10.3a82.93,82.93,0,0,0,2.1-9.9c.4-2,1.5-8.7,2.2-9.9h6.3a49.18,49.18,0,0,0,1.6-7.3H135.8l-1.5,7.2Zm21.5,19.9h10.6l5.6-27.1H161.4Zm-112-26c-2.8-1.2-5.6-1.2-9-1.2-2.9,0-7.5-.3-10.1.1l-5.7,27c12.2.2,24.7,2.1,28.9-11.7C49.8,47.52,48.9,41.72,43.8,39.52ZM37.2,53c-.9,3.7-2,6.6-6.6,6.3l3.2-14.7C39.3,44.22,38.1,48.92,37.2,53ZM130,38.42c-3.2-.2-10-.1-13.7-.1l-7.1,13.6c-1,1.9-6.7,12.4-6.9,13.6h9.9l2-4.3h7.6l.1,4.1c1.2.4,8.6.2,10.9.2Zm-8.4,16.1h-4.3a80.31,80.31,0,0,1,4.3-9.8Z" transform="translate(-0.98 -1.54)"/>
</svg>
