<?xml version="1.0" encoding="utf-8"?>
<!-- Generator: Adobe Illustrator 22.0.0, SVG Export Plug-In . SVG Version: 6.00 Build 0)  -->
<svg version="1.1" id="Layer_1" xmlns="http://www.w3.org/2000/svg" xmlns:xlink="http://www.w3.org/1999/xlink" x="0px" y="0px"
	 viewBox="0 0 116 602" style="enable-background:new 0 0 116 602;" xml:space="preserve">
<path id="ducati" d="M3.2,40.6V0.7l108,22.4V63L3.2,40.6z M3.2,578.3v-47.1c0-8.8,0.9-17.6,4.2-26.3c6.5-19.2,22.9-23.1,41.8-21.5
	c13.9,2.3,27.7,6.2,38.3,15c18,12.9,23.8,34.4,23.8,56.1v46.2L3.2,578.3L3.2,578.3z M28.6,542.5l58.2,12c0-22.4-7.4-22.4-31.9-27.9
	C37.6,522.4,28.6,524,28.6,542.5L28.6,542.5z M3.2,463.2V421l65.6,13.6c3.9,0.7,18,3.9,16.4-6.5c-0.9-6.5-9-8.8-16.4-10.4L3.2,404.1
	v-41.6l61.4,12.9c21.2,3.9,30.3,9.5,38.3,19.9c8.3,10.4,11.5,21.7,11.5,39.3c0,32.8-10.6,49.4-49.9,41.6L3.2,463.2L3.2,463.2z
	 M44,296.3c-13.9-3.2-21.2,8.1-6.5,18.5c7.4,4.6,49.9,17.6,49.2,0c-0.9-7.2-5.8-8.8-14.8-11.3v-40c27.7,8.8,42.5,27.3,42.5,57.5
	c0,15.2-3.2,24.9-10.6,32.8c-10.6,12-31.2,12.9-45.7,10.4c-37.6-7.9-59.8-35.1-57.3-69.5c1.6-29.6,15.5-40,43.2-36.7L44,296.3
	L44,296.3z M3.2,217.3v-54.5l108.1-10.4v42.5l-16.4,1.6v29.6l16.4,6.2v41.6L3.2,217.3L3.2,217.3z M67.8,214.7v-18.2H27L67.8,214.7
	L67.8,214.7z M3.2,142.9V48.7l28.6,6.2v27.3l79.4,15.9V139l-79.4-16.2v26.3L3.2,142.9L3.2,142.9z"/>
</svg>
