<svg id="Layer_1" data-name="Layer 1" xmlns="http://www.w3.org/2000/svg" viewBox="0 0 600 113.82">
  <title>ducati-logotype</title>
  <path id="logotype" d="M561.05,4.52h40L578.6,112.6h-40L561.05,4.52ZM23.4,4.52,1,112.6H47.19c21.71,0,43.19-5.77,56.12-23.78,8.78-10.63,12.7-24.48,15-38.34,1.62-18.94-2.31-35.33-21.48-41.8C88.07,5.45,79.29,4.52,70.52,4.52ZM59.2,29.93c18.47,0,20.09,9,15.93,26.32-5.54,24.48-5.54,31.87-27.94,31.87l12-58.19ZM138.41,4.52,125.48,66c-7.85,39.26,8.78,49.89,41.57,49.89,17.55,0,28.87-3.24,39.26-11.55C216.7,96.21,222.25,87.2,226.17,66L239.11,4.52H197.54L183.91,70.11c-1.62,7.39-3.93,15.47-10.39,16.4-10.4,1.61-7.16-12.47-6.47-16.4L180.68,4.52Zm167,40.88h38.34C347,17.69,336.57,3.83,307,2.21c-34.41-2.54-61.66,19.63-69.51,57.28C235,74,235.87,94.59,247.88,105.21c7.85,7.39,17.55,10.63,32.8,10.63,30.25,0,48.73-14.78,57.5-42.5H298.23c-2.54,9-4.16,13.86-11.32,14.78-17.55.7-4.62-41.8,0-49.19,10.39-14.78,21.71-7.39,18.48,6.47Zm79-40.88L327.79,112.6h41.57l6.24-16.39h29.56l1.61,16.39h42.5L438.88,4.52Zm2.54,64.67,18.25-40.88V69.19ZM458.74,4.52,452.5,33.16h26.33L462.66,112.6h40.88l15.94-79.44h27.25L553,4.52Z" transform="translate(-1 -2.01)" fill="#363a36" fill-rule="evenodd"/>
</svg>
